# xmcd
#
# Track frame offsets:
#	150
#	25562
#	40189
#	54576
#	68130
#	80509
#	91713
#	105372
#	123707
#	138031
#	147077
#	159237
#	181963
#	196705
#	217456
#	228411
#	241953
#	265249
#	286722
#	319894
#
# Disc length: 4606 seconds
#
# Revision: 0
# Processed by: cddbd v1.5.2PL0 Copyright (c) Steve Scherf et al.
# Submitted via: EZCDAudioConverter 2.1.7.1
#
DISCID=0d11fc14
DTITLE=V/A - Milk Of The Tree 3/3
DYEAR=1900
DGENRE=
TTITLE0=Chimera - Come Into The Garden
TTITLE1=Diane Hildebrand - Early Morning Blues And Greens
TTITLE2=Susan Christie - Rainy Day
TTITLE3=Bridget St. John - Autumn Lullaby
TTITLE4=Principal Edwards Magic Theatre - Ballad (Of The Big Girl Now And A Me
TTITLE4=re Boy)
TTITLE5=Ruthann Friedman - Windy
TTITLE6=Design - The Lonely
TTITLE7=Shelagh McDonald - Mirage
TTITLE8=Mary Hopkin - Aderyn Llwyd (Sparrow)
TTITLE9=Vashti Bunyan - Love Song
TTITLE10=Bonnie Dobson - Winter's Going
TTITLE11=Anne Briggs - Sandman's Song
TTITLE12=The Bunch - When Will I Be Loved
TTITLE13=Carolanne Pegg - The Lady And The Well
TTITLE14=Margo Guryan - Think Of Rain
TTITLE15=Ithaca - Story Of Our Time/Beneath This Sky
TTITLE16=Trees - Murdoch
TTITLE17=The Sallyangie - Banquet On The Water
TTITLE18=Emily Muff - Pass The Night
TTITLE19=Mimi Fariña - Morgan The Pirate
EXTD=
EXTT0=
EXTT1=
EXTT2=
EXTT3=
EXTT4=
EXTT5=
EXTT6=
EXTT7=
EXTT8=
EXTT9=
EXTT10=
EXTT11=
EXTT12=
EXTT13=
EXTT14=
EXTT15=
EXTT16=
EXTT17=
EXTT18=
EXTT19=
PLAYORDER=
